<svg width="18" height="17" viewBox="0 0 18 17" fill="none" xmlns="http://www.w3.org/2000/svg">
<path d="M3.0762 0.315032C2.94431 0.307193 2.8122 0.326889 2.68928 0.372719C2.56636 0.418549 2.45563 0.489389 2.36497 0.580204C2.27431 0.671018 2.20595 0.779578 2.16474 0.898167C2.12353 1.01676 2.11048 1.14246 2.12652 1.26635L3.48678 15.0511C3.57372 15.7206 4.41144 16.0326 4.95846 15.5991L7.82892 13.4006L9.11592 15.5061C9.85608 16.7168 11.0304 17.0143 12.3124 16.3153C13.5943 15.6162 13.909 14.5068 13.1688 13.2961L11.8863 11.1983L15.2876 9.96678C15.9586 9.73609 16.0916 8.89476 15.5216 8.48897L3.56112 0.484012C3.42043 0.384042 3.25193 0.325286 3.0762 0.315032Z" fill="#60A5FA"/>
</svg>
