<svg width="40" height="34" viewBox="0 0 40 34" fill="none" xmlns="http://www.w3.org/2000/svg">
<path d="M33.8451 3.13727C31.3116 1.86113 28.5687 0.934907 25.7115 0.399753C25.6864 0.398887 25.6615 0.403967 25.6385 0.414636C25.6154 0.425305 25.5949 0.441303 25.5782 0.461502C25.2353 1.14074 24.8353 2.0258 24.5686 2.70503C21.538 2.21104 18.4561 2.21104 15.4255 2.70503C15.1588 2.00521 14.7588 1.14074 14.3969 0.461502C14.3779 0.420336 14.3207 0.399753 14.2636 0.399753C11.4063 0.934907 8.68246 1.86113 6.13 3.13727C6.11096 3.13727 6.09191 3.15785 6.07286 3.17844C0.891766 11.5557 -0.536845 19.7065 0.167936 27.7749C0.167936 27.8161 0.186984 27.8573 0.225081 27.8779C3.65375 30.5948 6.94907 32.2414 10.2063 33.3323C10.2635 33.3529 10.3206 33.3323 10.3396 33.2911C11.1016 32.1591 11.7873 30.9653 12.3778 29.7097C12.4159 29.6274 12.3778 29.5451 12.3016 29.5245C11.2159 29.0717 10.1873 28.5365 9.17771 27.919C9.10151 27.8779 9.10151 27.7544 9.15866 27.6926C9.36819 27.5279 9.57772 27.3427 9.78725 27.178C9.82534 27.1369 9.88249 27.1369 9.92058 27.1575C16.4731 30.389 23.54 30.389 30.0164 27.1575C30.0545 27.1369 30.1116 27.1369 30.1497 27.178C30.3592 27.3633 30.5688 27.5279 30.7783 27.7132C30.8545 27.7749 30.8545 27.8984 30.7592 27.9396C29.7687 28.5777 28.7211 29.0922 27.6354 29.5451C27.5592 29.5656 27.5401 29.6686 27.5592 29.7303C28.1687 30.9859 28.8544 32.1797 29.5973 33.3117C29.6545 33.3323 29.7116 33.3529 29.7687 33.3323C33.045 32.2414 36.3404 30.5948 39.769 27.8779C39.8071 27.8573 39.8262 27.8161 39.8262 27.7749C40.6643 18.4509 38.4356 10.3619 33.9212 3.17844C33.9022 3.15785 33.8831 3.13727 33.8451 3.13727ZM13.3683 22.8556C11.4063 22.8556 9.7682 20.9003 9.7682 18.4921C9.7682 16.0839 11.3682 14.1285 13.3683 14.1285C15.3874 14.1285 16.9874 16.1045 16.9684 18.4921C16.9684 20.9003 15.3684 22.8556 13.3683 22.8556ZM26.6449 22.8556C24.6829 22.8556 23.0448 20.9003 23.0448 18.4921C23.0448 16.0839 24.6448 14.1285 26.6449 14.1285C28.664 14.1285 30.264 16.1045 30.2449 18.4921C30.2449 20.9003 28.664 22.8556 26.6449 22.8556Z" fill="#CBD5E1"/>
</svg>
