<svg width="40" height="40" viewBox="0 0 40 40" fill="none" xmlns="http://www.w3.org/2000/svg">
<path d="M37.4333 10.8704C36.15 11.4538 34.7667 11.8371 33.3333 12.0204C34.8 11.1371 35.9333 9.73711 36.4667 8.05378C35.0834 8.88711 33.55 9.47044 31.9333 9.80378C30.6167 8.37044 28.7667 7.53711 26.6667 7.53711C22.75 7.53711 19.55 10.7371 19.55 14.6871C19.55 15.2538 19.6167 15.8038 19.7333 16.3204C13.8 16.0204 8.51668 13.1704 5.00001 8.85378C4.38335 9.90378 4.03335 11.1371 4.03335 12.4371C4.03335 14.9204 5.28335 17.1204 7.21668 18.3704C6.03335 18.3704 4.93335 18.0371 3.96668 17.5371V17.5871C3.96668 21.0538 6.43335 23.9538 9.70002 24.6038C8.65123 24.8908 7.55017 24.9307 6.48335 24.7204C6.93603 26.1412 7.82258 27.3845 9.01838 28.2753C10.2142 29.1662 11.6591 29.6599 13.15 29.6871C10.6227 31.6878 7.49001 32.7693 4.26668 32.7538C3.70001 32.7538 3.13335 32.7204 2.56668 32.6538C5.73335 34.6871 9.50001 35.8704 13.5333 35.8704C26.6667 35.8704 33.8834 24.9704 33.8834 15.5204C33.8834 15.2038 33.8833 14.9038 33.8667 14.5871C35.2667 13.5871 36.4667 12.3204 37.4333 10.8704Z" fill="#CBD5E1"/>
</svg>
