<svg width="40" height="39" viewBox="0 0 40 39" fill="none" xmlns="http://www.w3.org/2000/svg">
<path d="M11.7141 19.2497C12.2285 17.4491 13.3155 15.865 14.8106 14.7373C16.3056 13.6095 18.1273 12.9995 20 12.9995C21.8727 12.9995 23.6944 13.6095 25.1894 14.7373C26.6845 15.865 27.7715 17.4491 28.2859 19.2497L29.1926 22.425C29.5615 23.7169 30.1302 24.9437 30.8745 26.0634L31.0532 26.3282C31.2791 26.6695 31.3929 26.8385 31.4481 26.9636C31.549 27.1898 31.5968 27.4361 31.588 27.6836C31.5791 27.9311 31.5137 28.1734 31.3969 28.3918C31.2801 28.6102 31.1149 28.799 30.914 28.9438C30.713 29.0886 30.4816 29.1855 30.2375 29.2272C30.101 29.25 29.8963 29.25 29.4884 29.25H10.51C10.1021 29.25 9.89737 29.25 9.7625 29.2272C9.51821 29.1858 9.28663 29.089 9.08549 28.9443C8.88435 28.7995 8.71896 28.6108 8.60198 28.3923C8.485 28.1739 8.41952 27.9316 8.41056 27.684C8.40159 27.4363 8.44937 27.1899 8.55025 26.9636C8.6055 26.8385 8.71925 26.6679 8.94675 26.3282L9.12387 26.0634C9.86947 24.9444 10.4368 23.7164 10.8057 22.4234L11.7141 19.2497Z" fill="#EF4444"/>
<path d="M18.375 14.625L20 4.875L21.625 14.625M20.8125 34.125H19.1875" stroke="#EF4444" stroke-width="2" stroke-linecap="round"/>
</svg>
