<svg width="25" height="24" viewBox="0 0 25 24" fill="none" xmlns="http://www.w3.org/2000/svg">
<path d="M21.25 4.5C21.25 5.16304 20.9866 5.79893 20.5178 6.26777C20.0489 6.73661 19.413 7 18.75 7C18.087 7 17.4511 6.73661 16.9822 6.26777C16.5134 5.79893 16.25 5.16304 16.25 4.5C16.25 3.83696 16.5134 3.20107 16.9822 2.73223C17.4511 2.26339 18.087 2 18.75 2C19.413 2 20.0489 2.26339 20.5178 2.73223C20.9866 3.20107 21.25 3.83696 21.25 4.5Z" fill="#14B8A6"/>
<path fill-rule="evenodd" clip-rule="evenodd" d="M10.302 5.92998C10.5405 5.89377 10.7819 5.87938 11.023 5.88698C11.103 5.89098 11.193 5.89698 11.296 5.90698C13.679 6.15498 15.446 7.94298 16.624 9.70898L16.687 9.80298C16.9838 10.2481 17.3859 10.6131 17.8576 10.8655C18.3293 11.1179 18.856 11.25 19.391 11.25H21.25C21.4489 11.25 21.6397 11.329 21.7803 11.4697C21.921 11.6103 22 11.8011 22 12C22 12.1989 21.921 12.3897 21.7803 12.5303C21.6397 12.671 21.4489 12.75 21.25 12.75H19.39C18.6081 12.75 17.8382 12.5569 17.1488 12.188C16.4594 11.819 15.8718 11.2856 15.438 10.635L15.376 10.541C15.1097 10.1384 14.817 9.75392 14.5 9.38998L12.616 11.745C12.188 12.279 11.902 12.639 11.709 12.935C11.521 13.221 11.468 13.38 11.454 13.501C11.43 13.701 11.456 13.904 11.527 14.092C11.571 14.206 11.662 14.348 11.913 14.579C12.173 14.819 12.539 15.097 13.085 15.509L13.18 15.582C13.9 16.128 14.4 16.506 14.745 17.01C14.942 17.297 15.097 17.61 15.208 17.94C15.401 18.52 15.401 19.146 15.401 20.05V22C15.401 22.1989 15.322 22.3897 15.1813 22.5303C15.0407 22.671 14.8499 22.75 14.651 22.75C14.4521 22.75 14.2613 22.671 14.1207 22.5303C13.98 22.3897 13.901 22.1989 13.901 22V20.17C13.901 19.1 13.891 18.735 13.785 18.415C13.719 18.217 13.6258 18.0292 13.508 17.857C13.318 17.579 13.032 17.352 12.178 16.705L12.15 16.684C11.64 16.298 11.217 15.977 10.898 15.683C10.564 15.376 10.287 15.048 10.126 14.627C9.96807 14.213 9.91249 13.767 9.964 13.327C10.016 12.879 10.205 12.492 10.454 12.113C10.691 11.751 11.023 11.335 11.422 10.836L13.406 8.35698C12.719 7.83398 11.962 7.48598 11.142 7.40098C11.0808 7.39452 11.0195 7.38985 10.958 7.38698C10.8074 7.38347 10.6568 7.39352 10.508 7.41698C9.443 7.56498 8.376 8.15698 6.058 9.47398L4.622 10.289C4.44908 10.3874 4.24415 10.4131 4.0523 10.3604C3.86045 10.3077 3.6974 10.1809 3.599 10.008C3.5006 9.83506 3.47493 9.63013 3.52763 9.43829C3.58033 9.24644 3.70708 9.08338 3.88 8.98498L5.316 8.16998L5.468 8.08298C7.588 6.87898 8.917 6.12298 10.303 5.93198M9.73 16.425C9.88271 16.5523 9.97861 16.7351 9.99662 16.9331C10.0146 17.1311 9.95325 17.3282 9.826 17.481L8.826 18.682L8.729 18.798C8.087 19.569 7.616 20.136 6.958 20.444C6.3 20.752 5.563 20.752 4.558 20.751H3.25C3.05109 20.751 2.86032 20.672 2.71967 20.5313C2.57902 20.3907 2.5 20.1999 2.5 20.001C2.5 19.8021 2.57902 19.6113 2.71967 19.4707C2.86032 19.33 3.05109 19.251 3.25 19.251H4.408C5.63 19.251 6.004 19.234 6.321 19.086C6.639 18.937 6.891 18.66 7.673 17.722L8.673 16.521C8.73606 16.4452 8.81344 16.3826 8.90071 16.3368C8.98798 16.291 9.08343 16.2628 9.1816 16.2539C9.27977 16.245 9.37873 16.2555 9.47283 16.2848C9.56693 16.3142 9.65432 16.3618 9.73 16.425Z" fill="#14B8A6"/>
</svg>
