<svg width="25" height="24" viewBox="0 0 25 24" fill="none" xmlns="http://www.w3.org/2000/svg">
<path d="M3 9.5H22M3 9.5V20.5C3 20.7652 3.10536 21.0196 3.29289 21.2071C3.48043 21.3946 3.73478 21.5 4 21.5H21C21.2652 21.5 21.5196 21.3946 21.7071 21.2071C21.8946 21.0196 22 20.7652 22 20.5V9.5M3 9.5V5C3 4.73478 3.10536 4.48043 3.29289 4.29289C3.48043 4.10536 3.73478 4 4 4H21C21.2652 4 21.5196 4.10536 21.7071 4.29289C21.8946 4.48043 22 4.73478 22 5V9.5" stroke="#F59E0B" stroke-linejoin="round"/>
<path d="M8.5 15.5L11.5 18.5L17.5 12.5" stroke="#F59E0B" stroke-linecap="round" stroke-linejoin="round"/>
<path d="M8.5 2.5V6.5M16.5 2.5V6.5" stroke="#F59E0B" stroke-linecap="round"/>
</svg>
