<svg width="40" height="41" viewBox="0 0 40 41" fill="none" xmlns="http://www.w3.org/2000/svg">
<g id="ic:baseline-telegram">
<path id="Vector" d="M20 4.20361C10.8 4.20361 3.33334 11.6703 3.33334 20.8703C3.33334 30.0703 10.8 37.5369 20 37.5369C29.2 37.5369 36.6667 30.0703 36.6667 20.8703C36.6667 11.6703 29.2 4.20361 20 4.20361ZM27.7333 15.5369C27.4833 18.1703 26.4 24.5703 25.85 27.5203C25.6167 28.7703 25.15 29.1869 24.7167 29.2369C23.75 29.3203 23.0167 28.6036 22.0833 27.9869C20.6167 27.0203 19.7833 26.4203 18.3667 25.4869C16.7167 24.4036 17.7833 23.8036 18.7333 22.8369C18.9833 22.5869 23.25 18.7036 23.3333 18.3536C23.3449 18.3006 23.3434 18.2456 23.3289 18.1933C23.3143 18.141 23.2873 18.0931 23.25 18.0536C23.15 17.9703 23.0167 18.0036 22.9 18.0203C22.75 18.0536 20.4167 19.6036 15.8667 22.6703C15.2 23.1203 14.6 23.3536 14.0667 23.3369C13.4667 23.3203 12.3333 23.0036 11.4833 22.7203C10.4333 22.3869 9.61668 22.2036 9.68334 21.6203C9.71668 21.3203 10.1333 21.0203 10.9167 20.7036C15.7833 18.5869 19.0167 17.1869 20.6333 16.5203C25.2667 14.5869 26.2167 14.2536 26.85 14.2536C26.9833 14.2536 27.3 14.2869 27.5 14.4536C27.6667 14.5869 27.7167 14.7703 27.7333 14.9036C27.7167 15.0036 27.75 15.3036 27.7333 15.5369Z" fill="black"/>
</g>
</svg>
