<svg width="38" height="27" viewBox="0 0 38 27" fill="none" xmlns="http://www.w3.org/2000/svg">
<g id="meteoconsWind0" clip-path="url(#clip0_10_327)">
<path id="Vector" d="M29.1938 3.03281C29.6948 2.51085 30.3175 2.1213 31.006 1.89904C31.6945 1.67678 32.4274 1.62875 33.1391 1.75926C33.8507 1.88976 34.5189 2.19473 35.0838 2.64684C35.6487 3.09895 36.0926 3.68409 36.3758 4.34988C36.659 5.01566 36.7727 5.74129 36.7067 6.46179C36.6407 7.18229 36.397 7.87516 35.9974 8.47837C35.5979 9.08158 35.055 9.57628 34.4174 9.91819C33.7797 10.2601 33.0673 10.4385 32.3438 10.4375H1.28125" stroke="#F59E0B" stroke-width="3" stroke-miterlimit="10" stroke-linecap="round"/>
<path id="Vector_2" d="M16.5062 23.9672C17.0073 24.4892 17.63 24.8787 18.3185 25.101C19.007 25.3232 19.7399 25.3712 20.4516 25.2407C21.1632 25.1102 21.8314 24.8053 22.3963 24.3532C22.9612 23.9011 23.4051 23.3159 23.6883 22.6501C23.9715 21.9843 24.0852 21.2587 24.0192 20.5382C23.9532 19.8177 23.7095 19.1248 23.3099 18.5216C22.9104 17.9184 22.3675 17.4237 21.7299 17.0818C21.0922 16.7399 20.3798 16.5615 19.6562 16.5625H1.28125" stroke="#F59E0B" stroke-width="3" stroke-miterlimit="10" stroke-linecap="round"/>
</g>
<defs>
<clipPath id="clip0_10_327">
<rect width="37.4062" height="25.5938" fill="white" transform="translate(0.296875 0.703125)"/>
</clipPath>
</defs>
</svg>
