<svg width="31" height="31" viewBox="0 0 31 31" fill="none" xmlns="http://www.w3.org/2000/svg">
<g clip-path="url(#clip0_10_332)">
<path fill-rule="evenodd" clip-rule="evenodd" d="M0 15.5C0 11.3891 1.63303 7.44666 4.53984 4.53984C7.44666 1.63303 11.3891 0 15.5 0C19.6109 0 23.5533 1.63303 26.4602 4.53984C29.367 7.44666 31 11.3891 31 15.5C31 19.6109 29.367 23.5533 26.4602 26.4602C23.5533 29.367 19.6109 31 15.5 31C11.3891 31 7.44666 29.367 4.53984 26.4602C1.63303 23.5533 0 19.6109 0 15.5ZM14.4667 15.5V6.2H16.5333V15.0722L22.4316 20.9684L20.9684 22.4316L14.7684 16.2316C14.6724 16.1355 14.5963 16.0214 14.5446 15.8959C14.4928 15.7703 14.4663 15.6358 14.4667 15.5Z" fill="#14B8A6"/>
</g>
<defs>
<clipPath id="clip0_10_332">
<rect width="31" height="31" fill="white"/>
</clipPath>
</defs>
</svg>
