<svg width="32" height="32" viewBox="0 0 32 32" fill="none" xmlns="http://www.w3.org/2000/svg">
<path d="M9.55973 30.3328C6.3864 30.3328 3.78645 28.0261 3.78645 25.1861V22.4661C3.78645 21.9195 4.23979 21.4661 4.78645 21.4661C5.33312 21.4661 5.78645 21.9195 5.78645 22.4661C5.78645 24.1328 7.39973 25.3861 9.55973 25.3861C11.7197 25.3861 13.3331 24.1328 13.3331 22.4661C13.3331 21.9195 13.7864 21.4661 14.3331 21.4661C14.8797 21.4661 15.3331 21.9195 15.3331 22.4661V25.1861C15.3331 28.0261 12.7464 30.3328 9.55973 30.3328ZM6.13305 26.4928C6.71972 27.5861 8.03973 28.3328 9.55973 28.3328C11.0797 28.3328 12.3997 27.5728 12.9864 26.4928C12.0397 27.0661 10.8664 27.3995 9.55973 27.3995C8.25307 27.3995 7.07972 27.0661 6.13305 26.4928Z" fill="white"/>
<path d="M9.55973 23.7325C7.37307 23.7325 5.41311 22.7325 4.43977 21.1459C4.01311 20.4525 3.78645 19.6392 3.78645 18.8125C3.78645 17.4125 4.39977 16.1059 5.51977 15.1325C7.67977 13.2392 11.3997 13.2393 13.5731 15.1193C14.6931 16.106 15.3197 17.4125 15.3197 18.8125C15.3197 19.6392 15.0931 20.4525 14.6664 21.1459C13.7064 22.7325 11.7464 23.7325 9.55973 23.7325ZM9.55973 15.666C8.51973 15.666 7.55976 16.0125 6.83976 16.6392C6.15976 17.2259 5.78645 17.9992 5.78645 18.8125C5.78645 19.2792 5.9064 19.706 6.1464 20.106C6.75973 21.1193 8.0664 21.746 9.55973 21.746C11.0531 21.746 12.3597 21.1193 12.9597 20.1193C13.1997 19.7327 13.3197 19.2927 13.3197 18.826C13.3197 18.0127 12.9464 17.2392 12.2664 16.6392C11.5598 16.0125 10.5997 15.666 9.55973 15.666Z" fill="white"/>
<path d="M9.55973 27.4C6.2664 27.4 3.78645 25.28 3.78645 22.48V18.8134C3.78645 15.9734 6.37307 13.6667 9.55973 13.6667C11.0664 13.6667 12.5064 14.1867 13.5864 15.12C14.7064 16.1067 15.3331 17.4134 15.3331 18.8134V22.48C15.3331 25.28 12.8531 27.4 9.55973 27.4ZM9.55973 15.6667C7.47973 15.6667 5.78645 17.08 5.78645 18.8134V22.48C5.78645 24.1467 7.39973 25.4 9.55973 25.4C11.7197 25.4 13.3331 24.1467 13.3331 22.48V18.8134C13.3331 18 12.9598 17.2267 12.2798 16.6267C11.5598 16.0134 10.5997 15.6667 9.55973 15.6667Z" fill="white"/>
<path d="M25.3865 19.7336C23.3732 19.7336 21.6665 18.2402 21.5065 16.3202C21.3999 15.2136 21.7999 14.1336 22.5999 13.3469C23.2665 12.6536 24.2132 12.2669 25.2132 12.2669H27.9999C29.3199 12.3069 30.3332 13.3469 30.3332 14.6269V17.3736C30.3332 18.6536 29.3199 19.6936 28.0399 19.7336H25.3865ZM27.9599 14.2669H25.2265C24.7599 14.2669 24.3332 14.4402 24.0265 14.7602C23.6399 15.1336 23.4532 15.6402 23.5065 16.1469C23.5732 17.0269 24.4265 17.7336 25.3865 17.7336H27.9999C28.1732 17.7336 28.3332 17.5736 28.3332 17.3736V14.6269C28.3332 14.4269 28.1732 14.2802 27.9599 14.2669Z" fill="white"/>
<path d="M21.3336 28.3334H18.0003C17.4536 28.3334 17.0003 27.88 17.0003 27.3334C17.0003 26.7867 17.4536 26.3334 18.0003 26.3334H21.3336C24.7736 26.3334 27.0003 24.1067 27.0003 20.6667V19.7334H25.3869C23.3736 19.7334 21.6669 18.24 21.5069 16.32C21.4003 15.2134 21.8004 14.1334 22.6004 13.3467C23.2671 12.6534 24.2136 12.2667 25.2136 12.2667H26.9869V11.3334C26.9869 8.21335 25.1604 6.06666 22.2004 5.71999C21.8804 5.66666 21.6003 5.66669 21.3203 5.66669H9.32031C9.00031 5.66669 8.69363 5.69334 8.38696 5.73334C5.45363 6.10667 3.65364 8.24002 3.65364 11.3334V14C3.65364 14.5467 3.20031 15 2.65364 15C2.10697 15 1.65364 14.5467 1.65364 14V11.3334C1.65364 7.22669 4.18703 4.25337 8.12036 3.76003C8.48036 3.7067 8.89364 3.66669 9.32031 3.66669H21.3203C21.6403 3.66669 22.0536 3.68002 22.4803 3.74669C26.4136 4.20002 28.9869 7.18669 28.9869 11.3334V13.2667C28.9869 13.8134 28.5336 14.2667 27.9869 14.2667H25.2136C24.7469 14.2667 24.3204 14.44 24.0137 14.76C23.6271 15.1334 23.4403 15.64 23.4936 16.1467C23.5603 17.0267 24.4137 17.7334 25.3737 17.7334H28.0003C28.5469 17.7334 29.0003 18.1867 29.0003 18.7334V20.6667C29.0003 25.2534 25.9203 28.3334 21.3336 28.3334Z" fill="white"/>
</svg>
